<?xml version="1.0" encoding="UTF-8"?>
<svg id="Layer_2" data-name="Layer 2" xmlns="http://www.w3.org/2000/svg" xmlns:xlink="http://www.w3.org/1999/xlink" viewBox="0 0 1262.15 650.54">
  <defs>
    <style>
      .sprinkles-1 {
        fill: none;
      }

      .sprinkles-1, .sprinkles-2, .sprinkles-3, .sprinkles-4 {
        stroke-width: 0px;
      }

      .sprinkles-2 {
        fill: url(#sprinkles);
        opacity: .1;
      }

      .sprinkles-3 {
        fill: #212121;
      }

      .sprinkles-4 {
        fill: #fff;
      }
    </style>
    <pattern id="sprinkles" x="0" y="0" width="1417.32" height="1417.32" patternTransform="translate(-4920.36 -6188.48) scale(.5)" patternUnits="userSpaceOnUse" viewBox="0 0 1417.32 1417.32">
      <g>
        <rect class="sprinkles-1" x="0" y="0" width="1417.32" height="1417.32"/>
        <rect class="sprinkles-4" x="0" y="0" width="1417.32" height="1417.32"/>
        <g>
          <rect class="sprinkles-3" x="338.61" width="10" height="186.44"/>
          <rect class="sprinkles-3" x="977.5" y="453.65" width="9.99" height="214.01"/>
          <polygon class="sprinkles-3" points="1267.72 1186.67 1211.75 980.11 1202.1 982.73 1258.07 1189.28 1267.72 1186.67"/>
          <polygon class="sprinkles-3" points="809.85 957.5 712.77 1148.22 721.68 1152.76 818.76 962.04 809.85 957.5"/>
          <polygon class="sprinkles-3" points="622.3 145.24 630.82 0 620.8 0 612.33 144.65 622.3 145.24"/>
          <polygon class="sprinkles-3" points="676.92 18.79 674.7 0 664.63 0 666.98 19.95 676.92 18.79"/>
          <polygon class="sprinkles-3" points="854.96 85.99 840.69 0 830.56 0 845.08 87.62 854.96 85.99"/>
          <polygon class="sprinkles-3" points="1317.91 62.53 1342.59 0 1331.84 0 1308.61 58.86 1317.91 62.53"/>
          <polygon class="sprinkles-3" points="1397.46 6.4 1386.43 0 1366.49 0 1392.46 15.04 1397.46 6.4"/>
          <polygon class="sprinkles-3" points="1081.11 87.4 1018.04 0 1005.72 0 1073 93.24 1081.11 87.4"/>
          <polygon class="sprinkles-3" points="82.25 21.7 86.44 0 76.26 0 72.43 19.8 82.25 21.7"/>
          <polygon class="sprinkles-3" points="418.11 13.6 406.9 0 393.96 0 410.39 19.95 418.11 13.6"/>
          <polygon class="sprinkles-3" points="1.82 77.64 0 81.41 0 104.36 10.83 82.01 1.82 77.64"/>
          <polygon class="sprinkles-3" points="241.53 120.1 169.36 32.42 161.64 38.78 233.8 126.45 241.53 120.1"/>
          <polygon class="sprinkles-3" points="300.97 41.86 308.68 0 298.5 0 291.13 40.04 300.97 41.86"/>
          <polygon class="sprinkles-3" points="513.34 93.37 520.35 0 510.33 0 503.37 92.62 513.34 93.37"/>
          <polygon class="sprinkles-3" points="60.57 503.81 0 430.23 0 445.98 52.85 510.16 60.57 503.81"/>
          <polygon class="sprinkles-3" points="548.22 28.52 578.49 0 563.92 0 541.36 21.24 548.22 28.52"/>
          <polygon class="sprinkles-3" points="1246.68 23.27 1256.52 0 1245.64 0 1237.45 19.38 1246.68 23.27"/>
          <polygon class="sprinkles-3" points="43.58 107.33 19.3 0 9.05 0 33.83 109.53 43.58 107.33"/>
          <polygon class="sprinkles-3" points="29.43 1164.95 0 1171.6 0 1181.87 31.62 1174.7 29.43 1164.95"/>
          <polygon class="sprinkles-3" points="52.28 182.2 0 165.42 0 175.92 49.23 191.71 52.28 182.2"/>
          <polygon class="sprinkles-3" points="1331.7 148.42 1417.32 175.92 1417.32 165.42 1334.76 138.91 1331.7 148.42"/>
          <polygon class="sprinkles-3" points="5.15 220.26 0 223.82 0 235.96 10.83 228.51 5.15 220.26"/>
          <polygon class="sprinkles-3" points="1093.63 45.66 1081.39 0 1071.04 0 1083.97 48.25 1093.63 45.66"/>
          <polygon class="sprinkles-3" points="1122.89 36.37 1128.7 0 1118.57 0 1113 34.79 1122.89 36.37"/>
          <polygon class="sprinkles-3" points="1149.35 177.48 1174.78 0 1164.68 0 1139.46 176.06 1149.35 177.48"/>
          <polygon class="sprinkles-3" points="1269.78 540.05 1279.68 541.48 1311.48 319.68 1301.57 318.25 1269.78 540.05"/>
          <polygon class="sprinkles-3" points="1279.68 131.08 1298.47 0 1288.37 0 1269.78 129.64 1279.68 131.08"/>
          <polygon class="sprinkles-3" points="997.58 26.84 913.91 0 881.2 0 994.52 36.37 997.58 26.84"/>
          <polygon class="sprinkles-3" points="1243.09 118.59 1214.55 0 1204.27 0 1233.37 120.93 1243.09 118.59"/>
          <polygon class="sprinkles-3" points="426.78 88.43 477.53 0 466.01 0 418.11 83.44 426.78 88.43"/>
          <polygon class="sprinkles-3" points="291.13 73.08 230.96 0 218.01 0 283.41 79.44 291.13 73.08"/>
          <polygon class="sprinkles-3" points="402.62 48.42 392.62 48.25 390.09 188.99 400.09 189.18 402.62 48.42"/>
          <polygon class="sprinkles-3" points="1156.57 585.02 1154.03 725.77 1164.03 725.94 1166.57 585.2 1156.57 585.02"/>
          <polygon class="sprinkles-3" points="832.56 687.31 830.02 828.06 840.03 828.25 842.55 687.49 832.56 687.31"/>
          <polygon class="sprinkles-3" points="247.91 378.8 237.91 378.63 235.38 519.38 245.38 519.55 247.91 378.8"/>
          <polygon class="sprinkles-3" points="306.46 109.12 297.02 105.79 250.23 238.57 259.67 241.88 306.46 109.12"/>
          <polygon class="sprinkles-3" points="167.59 117.46 209.72 251.78 219.26 248.78 177.12 114.46 167.59 117.46"/>
          <polygon class="sprinkles-3" points="571.67 194.46 708.37 228.07 710.75 218.36 574.05 184.74 571.67 194.46"/>
          <polygon class="sprinkles-3" points="1098.34 570.06 1226.4 511.62 1222.25 502.52 1094.18 560.98 1098.34 570.06"/>
          <polygon class="sprinkles-3" points="132.72 143.78 146.1 0 136.06 0 122.77 142.85 132.72 143.78"/>
          <polygon class="sprinkles-3" points="97.39 229.59 70.42 73.45 60.57 75.15 87.54 231.29 97.39 229.59"/>
          <polygon class="sprinkles-3" points="48.1 315.09 0 365.21 0 379.64 55.32 322.03 48.1 315.09"/>
          <polygon class="sprinkles-3" points="34.14 601.51 0 637.06 0 651.51 41.35 608.44 34.14 601.51"/>
          <polygon class="sprinkles-3" points="40.95 536.3 0 541.93 0 552.02 42.31 546.2 40.95 536.3"/>
          <polygon class="sprinkles-3" points="36.24 944.95 0 889.98 0 908.14 27.89 950.46 36.24 944.95"/>
          <polygon class="sprinkles-3" points="72.54 1165.6 0 1110 0 1122.6 66.45 1173.53 72.54 1165.6"/>
          <polygon class="sprinkles-3" points="40.95 1296.61 0 1292.93 0 1302.98 40.06 1306.57 40.95 1296.61"/>
          <polygon class="sprinkles-3" points="334.67 1333.34 465.29 1345.1 466.19 1335.13 335.58 1323.38 334.67 1333.34"/>
          <polygon class="sprinkles-3" points="34.15 1095.13 0 1046.44 0 1063.86 25.96 1100.86 34.15 1095.13"/>
          <polygon class="sprinkles-3" points="20.81 1358.05 0 1328.38 0 1345.79 12.62 1363.8 20.81 1358.05"/>
          <polygon class="sprinkles-3" points="10.17 1186.3 0 1197.77 0 1212.86 17.65 1192.94 10.17 1186.3"/>
          <polygon class="sprinkles-3" points="220.3 1146.34 140.84 1176.71 144.41 1186.05 223.88 1155.69 220.3 1146.34"/>
          <polygon class="sprinkles-3" points="214.55 1258.24 135.08 1288.59 138.65 1297.95 218.11 1267.57 214.55 1258.24"/>
          <polygon class="sprinkles-3" points="26.85 829.97 0 822.11 0 832.53 24.05 839.55 26.85 829.97"/>
          <polygon class="sprinkles-3" points="39.95 797.63 0 781.63 0 792.4 36.25 806.91 39.95 797.63"/>
          <polygon class="sprinkles-3" points="270.95 326.71 398.43 260.65 393.85 251.78 266.36 317.83 270.95 326.71"/>
          <polygon class="sprinkles-3" points="250.23 351.21 371.6 427.92 376.95 419.47 255.57 342.74 250.23 351.21"/>
          <polygon class="sprinkles-3" points="109.99 1000.14 0 956.12 0 966.89 106.28 1009.42 109.99 1000.14"/>
          <polygon class="sprinkles-3" points="20.19 287.07 0 274.54 0 286.31 14.91 295.57 20.19 287.07"/>
          <polygon class="sprinkles-3" points="664.32 48.25 772.2 0 747.7 0 660.23 39.12 664.32 48.25"/>
          <rect class="sprinkles-3" x="338.61" y="1389.76" width="10" height="27.56"/>
          <polygon class="sprinkles-3" points="621.68 1402.41 620.8 1417.32 630.82 1417.32 631.66 1403.01 621.68 1402.41"/>
          <polygon class="sprinkles-3" points="654.82 1333.92 664.63 1417.32 674.7 1417.32 664.74 1332.76 654.82 1333.92"/>
          <polygon class="sprinkles-3" points="828.36 1404.07 830.56 1417.32 840.69 1417.32 838.22 1402.44 828.36 1404.07"/>
          <polygon class="sprinkles-3" points="1346.14 1381.07 1331.84 1417.32 1342.59 1417.32 1355.45 1384.73 1346.14 1381.07"/>
          <polygon class="sprinkles-3" points="1359.94 1413.54 1366.49 1417.32 1386.43 1417.32 1364.96 1404.88 1359.94 1413.54"/>
          <polygon class="sprinkles-3" points="1282.3 1141.25 1314.82 1160.08 1319.84 1151.43 1287.33 1132.59 1282.3 1141.25"/>
          <polygon class="sprinkles-3" points="1205.52 1188.29 1238.03 1207.14 1243.04 1198.49 1210.54 1179.64 1205.52 1188.29"/>
          <polygon class="sprinkles-3" points="942.65 1329.93 1005.72 1417.32 1018.04 1417.32 950.76 1324.07 942.65 1329.93"/>
          <polygon class="sprinkles-3" points="112.96 1227.02 76.26 1417.32 86.44 1417.32 122.77 1228.9 112.96 1227.02"/>
          <polygon class="sprinkles-3" points="382.75 1403.71 393.96 1417.32 406.9 1417.32 390.47 1397.36 382.75 1403.71"/>
          <polygon class="sprinkles-3" points="158.1 1029.4 165.82 1023.03 138.17 989.46 130.46 995.81 158.1 1029.4"/>
          <polygon class="sprinkles-3" points="311.71 1345.7 298.5 1417.32 308.68 1417.32 321.54 1347.5 311.71 1345.7"/>
          <polygon class="sprinkles-3" points="511.89 1396.7 510.33 1417.32 520.35 1417.32 521.85 1397.45 511.89 1396.7"/>
          <polygon class="sprinkles-3" points="573.01 1408.74 563.92 1417.32 578.49 1417.32 579.87 1416.03 573.01 1408.74"/>
          <polygon class="sprinkles-3" points="740.39 1279.4 708.74 1309.22 715.6 1316.49 747.25 1286.66 740.39 1279.4"/>
          <polygon class="sprinkles-3" points="716.69 1355.02 723.54 1362.29 755.2 1332.48 748.34 1325.2 716.69 1355.02"/>
          <polygon class="sprinkles-3" points="271.71 1323.11 240.07 1352.92 246.94 1360.21 278.58 1330.38 271.71 1323.11"/>
          <polygon class="sprinkles-3" points="192.51 1325.54 199.36 1332.82 231.01 1303 224.14 1295.72 192.51 1325.54"/>
          <polygon class="sprinkles-3" points="1254.4 1396.65 1245.64 1417.32 1256.52 1417.32 1263.61 1400.54 1254.4 1396.65"/>
          <polygon class="sprinkles-3" points="19.3 1417.32 7.42 1364.83 0 1366.51 0 1377.32 9.05 1417.32 19.3 1417.32"/>
          <polygon class="sprinkles-3" points="1025.97 1249.15 1071.04 1417.32 1081.39 1417.32 1035.62 1246.57 1025.97 1249.15"/>
          <polygon class="sprinkles-3" points="1125.54 1373.78 1118.58 1417.32 1128.7 1417.32 1135.42 1375.34 1125.54 1373.78"/>
          <polygon class="sprinkles-3" points="1171.24 1371.59 1164.68 1417.32 1174.78 1417.32 1181.14 1373.01 1171.24 1371.59"/>
          <polygon class="sprinkles-3" points="1301.57 1325.2 1288.37 1417.32 1298.47 1417.32 1311.48 1326.6 1301.57 1325.2"/>
          <polygon class="sprinkles-3" points="859.67 1410.41 881.2 1417.32 913.91 1417.32 862.73 1400.89 859.67 1410.41"/>
          <polygon class="sprinkles-3" points="1200.23 1400.55 1204.27 1417.32 1214.55 1417.32 1209.95 1398.22 1200.23 1400.55"/>
          <polygon class="sprinkles-3" points="524.03 1316.2 466.01 1417.32 477.53 1417.32 532.7 1321.18 524.03 1316.2"/>
          <polygon class="sprinkles-3" points="147.4 1331.54 218.01 1417.32 230.96 1417.32 155.12 1325.2 147.4 1331.54"/>
          <polygon class="sprinkles-3" points="137.44 1402.41 136.06 1417.32 146.1 1417.32 147.4 1403.34 137.44 1402.41"/>
          <polygon class="sprinkles-3" points="855.59 1369.07 747.7 1417.32 772.2 1417.32 859.67 1378.21 855.59 1369.07"/>
          <polygon class="sprinkles-3" points="115.99 591.54 0 582 0 592.01 115.16 601.51 115.99 591.54"/>
          <polygon class="sprinkles-3" points="1409.21 121.16 1417.32 104.36 1417.32 81.41 1400.2 116.8 1409.21 121.16"/>
          <polygon class="sprinkles-3" points="1328.28 249.24 1309.34 288.39 1318.35 292.74 1337.3 253.59 1328.28 249.24"/>
          <polygon class="sprinkles-3" points="1223.3 203 1287.63 291.52 1295.72 285.64 1231.37 197.12 1223.3 203"/>
          <polygon class="sprinkles-3" points="1398.01 422.5 1417.32 445.98 1417.32 430.23 1405.73 416.15 1398.01 422.5"/>
          <polygon class="sprinkles-3" points="1262.23 399.69 1269.95 393.32 1197.77 305.65 1190.06 312.01 1262.23 399.69"/>
          <polygon class="sprinkles-3" points="122.73 547.09 194.91 634.77 202.63 628.39 130.45 540.75 122.73 547.09"/>
          <rect class="sprinkles-3" x="290.58" y="433.74" width="10.01" height="214"/>
          <polygon class="sprinkles-3" points="455.73 895.56 445.76 894.98 436.41 1054.55 446.39 1055.13 455.73 895.56"/>
          <polygon class="sprinkles-3" points="491.06 929.86 500.98 928.68 488.82 825.31 478.9 826.49 491.06 929.86"/>
          <polygon class="sprinkles-3" points="759.04 966.46 746.85 863.09 736.93 864.26 749.1 967.62 759.04 966.46"/>
          <polygon class="sprinkles-3" points="546.36 822.41 536.98 818.92 519.04 867.3 528.41 870.79 546.36 822.41"/>
          <polygon class="sprinkles-3" points="593.1 885.35 588.25 876.6 543.1 901.56 547.93 910.31 593.1 885.35"/>
          <polygon class="sprinkles-3" points="400.7 830.37 390.76 831.55 402.92 934.9 412.86 933.74 400.7 830.37"/>
          <polygon class="sprinkles-3" points="424.01 830.37 463.48 818.8 460.66 809.22 421.18 820.77 424.01 830.37"/>
          <polygon class="sprinkles-3" points="383.83 923.35 381.01 913.75 341.54 925.32 344.35 934.91 383.83 923.35"/>
          <polygon class="sprinkles-3" points="396.21 969.73 386.95 965.95 371.44 1004.04 380.69 1007.82 396.21 969.73"/>
          <polygon class="sprinkles-3" points="494.65 1020.39 491.84 1010.78 452.36 1022.35 455.18 1031.95 494.65 1020.39"/>
          <polygon class="sprinkles-3" points="264.35 1057.99 303.81 1046.44 300.99 1036.82 261.53 1048.39 264.35 1057.99"/>
          <polygon class="sprinkles-3" points="420.24 412.05 432.4 515.43 442.33 514.26 430.17 410.9 420.24 412.05"/>
          <polygon class="sprinkles-3" points="160.31 964.89 170.24 963.72 158.07 860.34 148.15 861.52 160.31 964.89"/>
          <polygon class="sprinkles-3" points="318.14 451.89 417.15 483.94 420.24 474.43 321.22 442.37 318.14 451.89"/>
          <polygon class="sprinkles-3" points="292.56 780 391.58 812.07 394.65 802.54 295.64 770.49 292.56 780"/>
          <polygon class="sprinkles-3" points="129.28 1168.66 112.56 1067.77 102.69 1069.41 119.41 1170.3 129.28 1168.66"/>
          <polygon class="sprinkles-3" points="1141.99 972.42 1179.52 877.29 1170.22 873.63 1132.69 968.75 1141.99 972.42"/>
          <polygon class="sprinkles-3" points="815.36 871.47 816.84 881.36 918 866.41 916.54 856.51 815.36 871.47"/>
          <polygon class="sprinkles-3" points="1224.27 736.07 1233.59 739.75 1271.12 644.62 1261.82 640.95 1224.27 736.07"/>
          <polygon class="sprinkles-3" points="1283.81 1104.94 1285.63 1114.78 1334.99 1105.63 1333.16 1095.81 1283.81 1104.94"/>
          <polygon class="sprinkles-3" points="1224.27 849.59 1321.15 986.88 1329.33 981.12 1232.46 843.84 1224.27 849.59"/>
          <polygon class="sprinkles-3" points="459.99 1282.36 329.64 1101.72 321.54 1107.57 451.89 1288.21 459.99 1282.36"/>
          <polygon class="sprinkles-3" points="66.53 930.69 94.18 964.26 101.9 957.9 74.25 924.33 66.53 930.69"/>
          <polygon class="sprinkles-3" points="93.76 1029.31 38.7 1050.67 42.32 1059.99 97.38 1038.64 93.76 1029.31"/>
          <polygon class="sprinkles-3" points="403.55 1029.31 348.49 1050.67 352.1 1059.99 407.17 1038.64 403.55 1029.31"/>
          <polygon class="sprinkles-3" points="372.47 1126.85 376.1 1136.19 431.15 1114.82 427.54 1105.49 372.47 1126.85"/>
          <polygon class="sprinkles-3" points="519.47 956.51 464.41 977.86 468.03 987.18 523.09 965.83 519.47 956.51"/>
          <polygon class="sprinkles-3" points="87.82 795.8 79.31 909.03 89.29 909.78 97.79 796.55 87.82 795.8"/>
          <polygon class="sprinkles-3" points="67.05 569.11 73.91 576.38 105.56 546.55 98.71 539.28 67.05 569.11"/>
          <polygon class="sprinkles-3" points="67.63 700.89 116.34 655 109.47 647.74 60.77 693.63 67.63 700.89"/>
          <polygon class="sprinkles-3" points="240.18 864.21 191.49 910.09 198.34 917.37 247.05 871.49 240.18 864.21"/>
          <polygon class="sprinkles-3" points="24.57 858.56 38.43 899.78 47.92 896.59 34.05 855.38 24.57 858.56"/>
          <polygon class="sprinkles-3" points="268.81 1138.58 259.33 1141.78 273.2 1182.98 282.67 1179.79 268.81 1138.58"/>
          <polygon class="sprinkles-3" points="142.29 1041.92 172.88 1132.85 182.36 1129.67 151.76 1038.73 142.29 1041.92"/>
          <polygon class="sprinkles-3" points="1359.29 803.79 1350.09 799.87 1333.14 839.94 1342.34 843.84 1359.29 803.79"/>
          <polygon class="sprinkles-3" points="1218.02 858.52 1208.81 854.62 1191.85 894.67 1201.08 898.56 1218.02 858.52"/>
          <polygon class="sprinkles-3" points="1305.52 1268.53 1322.47 1228.48 1313.26 1224.59 1296.31 1264.64 1305.52 1268.53"/>
          <polygon class="sprinkles-3" points="951.53 1253.25 893.53 1036.82 883.87 1039.42 941.88 1255.85 951.53 1253.25"/>
          <polygon class="sprinkles-3" points="946.96 946.26 959.48 867.9 949.62 866.33 937.08 944.68 946.96 946.26"/>
          <polygon class="sprinkles-3" points="807.13 1142.58 775.35 1364.38 785.25 1365.81 817.03 1144.01 807.13 1142.58"/>
          <polygon class="sprinkles-3" points="1140 1076.12 1130.11 1074.7 1098.31 1296.49 1108.21 1297.91 1140 1076.12"/>
          <polygon class="sprinkles-3" points="610.08 665.01 744.93 708.28 747.98 698.76 613.14 655.48 610.08 665.01"/>
          <polygon class="sprinkles-3" points="1067.16 1028.49 1034.03 890.79 1024.3 893.13 1057.44 1030.82 1067.16 1028.49"/>
          <polygon class="sprinkles-3" points="1065.47 1068.15 998.84 1193.11 1007.66 1197.81 1074.3 1072.85 1065.47 1068.15"/>
          <polygon class="sprinkles-3" points="150.51 643.01 44.61 827.59 53.27 832.56 159.19 648 150.51 643.01"/>
          <polygon class="sprinkles-3" points="989.75 778.74 1200.12 746.7 1198.62 736.81 988.24 768.86 989.75 778.74"/>
          <polygon class="sprinkles-3" points="226.69 958.31 216.69 958.14 214.16 1098.88 224.16 1099.07 226.69 958.31"/>
          <polygon class="sprinkles-3" points="750.45 1245.15 555.1 1332.52 559.18 1341.66 754.54 1254.28 750.45 1245.15"/>
          <polygon class="sprinkles-3" points="1385.74 1125.2 1376.74 1120.84 1357.79 1159.99 1366.8 1164.33 1385.74 1125.2"/>
          <polygon class="sprinkles-3" points="1378.39 1053.18 1376.3 1043.41 1348.48 1049.33 1350.55 1059.11 1378.39 1053.18"/>
          <polygon class="sprinkles-3" points="1278.82 1041.83 1259.88 1080.98 1268.88 1085.34 1287.82 1046.2 1278.82 1041.83"/>
          <polygon class="sprinkles-3" points="1198.72 1206.06 1234.87 1365.89 1244.62 1363.67 1208.47 1203.85 1198.72 1206.06"/>
          <polygon class="sprinkles-3" points="65.63 238.86 59.04 218.08 49.5 221.11 56.11 241.88 65.63 238.86"/>
          <polygon class="sprinkles-3" points="476.18 119.44 460.06 68.66 450.53 71.68 466.65 122.47 476.18 119.44"/>
          <polygon class="sprinkles-3" points="956.08 60.6 946.16 59.34 943.41 80.97 953.32 82.22 956.08 60.6"/>
          <polygon class="sprinkles-3" points="879.79 205.05 889.59 207.1 895.98 176.41 886.19 174.37 879.79 205.05"/>
          <polygon class="sprinkles-3" points="936.2 189.15 927.91 183.56 892.81 235.66 901.1 241.25 936.2 189.15"/>
          <polygon class="sprinkles-3" points="759.95 35.6 751.65 30.02 739.47 48.1 747.78 53.69 759.95 35.6"/>
          <polygon class="sprinkles-3" points="1123.25 66.64 1114.95 61.05 1102.78 79.13 1111.07 84.72 1123.25 66.64"/>
          <polygon class="sprinkles-3" points="1200.71 61.35 1191.27 41.7 1182.26 46.03 1191.69 65.68 1200.71 61.35"/>
          <polygon class="sprinkles-3" points="1255.46 187.85 1262.87 167.36 1253.45 163.97 1246.06 184.47 1255.46 187.85"/>
          <polygon class="sprinkles-3" points="1227.47 247.35 1219.18 241.78 1191.48 282.86 1199.78 288.47 1227.47 247.35"/>
          <polygon class="sprinkles-3" points="542.32 172.59 534.03 167.01 521.85 185.08 530.15 190.67 542.32 172.59"/>
          <polygon class="sprinkles-3" points="728.05 179.88 715.88 197.96 724.18 203.54 736.36 185.46 728.05 179.88"/>
          <polygon class="sprinkles-3" points="794.65 207.34 802.95 212.92 815.13 194.85 806.83 189.25 794.65 207.34"/>
          <polygon class="sprinkles-3" points="553.02 365.08 612.72 391.29 616.74 382.13 557.04 355.93 553.02 365.08"/>
          <polygon class="sprinkles-3" points="263.76 557.63 243.8 548.88 239.78 558.03 259.75 566.79 263.76 557.63"/>
          <polygon class="sprinkles-3" points="342.52 492.31 338.51 501.46 358.47 510.23 362.49 501.07 342.52 492.31"/>
          <polygon class="sprinkles-3" points="268.1 427.67 276.4 433.25 288.58 415.17 280.3 409.58 268.1 427.67"/>
          <polygon class="sprinkles-3" points="460.55 384.99 448.36 403.07 456.65 408.66 468.84 390.58 460.55 384.99"/>
          <polygon class="sprinkles-3" points="459.55 537.47 467.86 543.07 480.03 524.99 471.73 519.39 459.55 537.47"/>
          <polygon class="sprinkles-3" points="692.87 659.82 720.47 618.84 712.18 613.25 684.58 654.23 692.87 659.82"/>
          <polygon class="sprinkles-3" points="326.36 596.69 369.15 533.18 360.86 527.59 318.07 591.11 326.36 596.69"/>
          <polygon class="sprinkles-3" points="318.07 669.92 326.36 675.5 369.15 612 360.86 606.41 318.07 669.92"/>
          <polygon class="sprinkles-3" points="212.86 449.07 204.57 443.48 192.4 461.56 200.68 467.14 212.86 449.07"/>
          <polygon class="sprinkles-3" points="709.2 56.28 700.9 50.69 688.72 68.78 697.02 74.36 709.2 56.28"/>
          <polygon class="sprinkles-3" points="842.47 97.54 834.18 91.94 814.25 121.52 822.54 127.11 842.47 97.54"/>
          <polygon class="sprinkles-3" points="507.23 259.83 521.02 276.72 528.77 270.39 514.98 253.5 507.23 259.83"/>
          <polygon class="sprinkles-3" points="314.63 230.07 326.8 211.99 318.51 206.4 306.34 224.48 314.63 230.07"/>
          <polygon class="sprinkles-3" points="239.58 276.94 251.77 258.86 243.48 253.27 231.3 271.35 239.58 276.94"/>
          <polygon class="sprinkles-3" points="99.95 295.12 112.13 277.04 103.84 271.45 91.66 289.54 99.95 295.12"/>
          <polygon class="sprinkles-3" points="114.08 477.6 101.9 495.68 110.19 501.27 122.37 483.19 114.08 477.6"/>
          <polygon class="sprinkles-3" points="276.59 108.22 268.3 102.63 256.13 120.71 264.41 126.31 276.59 108.22"/>
          <polygon class="sprinkles-3" points="1344.01 80.07 1340.32 70.78 1320.05 78.8 1323.73 88.1 1344.01 80.07"/>
          <polygon class="sprinkles-3" points="1338.16 377.93 1401.19 353.02 1397.52 343.71 1334.48 368.64 1338.16 377.93"/>
          <polygon class="sprinkles-3" points="1073 363.57 1076.68 372.88 1139.7 347.95 1136.02 338.66 1073 363.57"/>
          <polygon class="sprinkles-3" points="1307.16 491 1370.19 466.08 1366.5 456.79 1303.49 481.7 1307.16 491"/>
          <polygon class="sprinkles-3" points="1328.11 226.38 1362.52 207.17 1357.65 198.43 1323.23 217.64 1328.11 226.38"/>
          <polygon class="sprinkles-3" points="1005.76 550.26 1040.17 531.06 1035.29 522.32 1000.87 541.53 1005.76 550.26"/>
          <polygon class="sprinkles-3" points="862.51 564.86 852.59 566.03 857.2 605.16 867.13 604.01 862.51 564.86"/>
          <polygon class="sprinkles-3" points="1370.93 298.29 1361.01 299.44 1365.63 338.6 1375.54 337.43 1370.93 298.29"/>
          <polygon class="sprinkles-3" points="1385.39 622.38 1381.31 613.25 1339.64 631.82 1343.72 640.95 1385.39 622.38"/>
          <polygon class="sprinkles-3" points="942.24 587.65 859.85 624.36 863.93 633.5 946.31 596.79 942.24 587.65"/>
          <polygon class="sprinkles-3" points="454.6 793.42 536.97 756.71 532.91 747.57 450.53 784.28 454.6 793.42"/>
          <polygon class="sprinkles-3" points="336.54 1017.71 258.88 971.84 253.8 980.46 331.46 1026.32 336.54 1017.71"/>
          <polygon class="sprinkles-3" points="450.45 673.18 493.2 654.14 489.13 645 446.39 664.04 450.45 673.18"/>
          <polygon class="sprinkles-3" points="348.49 876.86 266.12 913.58 270.18 922.71 352.56 886 348.49 876.86"/>
          <polygon class="sprinkles-3" points="1078.48 691.78 1087.81 695.36 1125.36 597.46 1116.02 593.88 1078.48 691.78"/>
          <polygon class="sprinkles-3" points="1062.48 872.48 1071.82 876.05 1109.36 778.15 1100.02 774.57 1062.48 872.48"/>
          <polygon class="sprinkles-3" points="1262.11 730.67 1266.18 739.79 1307.85 721.23 1303.78 712.1 1262.11 730.67"/>
          <polygon class="sprinkles-3" points="1016.21 579.84 1047.8 650.74 1056.94 646.67 1025.34 575.77 1016.21 579.84"/>
          <polygon class="sprinkles-3" points="933.25 716.18 858.66 737.69 861.42 747.3 936.02 725.8 933.25 716.18"/>
          <polygon class="sprinkles-3" points="925.94 655.63 957.54 726.55 966.68 722.49 935.08 651.56 925.94 655.63"/>
          <polygon class="sprinkles-3" points="880.15 768.45 871.01 772.52 902.61 843.43 911.74 839.37 880.15 768.45"/>
          <polygon class="sprinkles-3" points="917.7 780.36 990.66 806.88 994.07 797.48 921.12 770.96 917.7 780.36"/>
          <polygon class="sprinkles-3" points="1365.88 988.98 1359.24 968.2 1349.71 971.26 1356.35 992.02 1365.88 988.98"/>
          <polygon class="sprinkles-3" points="1369.37 890.32 1362.99 882.63 1346.21 896.58 1352.61 904.27 1369.37 890.32"/>
          <polygon class="sprinkles-3" points="1218.87 574.2 1202.1 588.14 1208.49 595.83 1225.27 581.89 1218.87 574.2"/>
          <polygon class="sprinkles-3" points="1060.94 604.63 1067.33 612.32 1084.1 598.38 1077.71 590.7 1060.94 604.63"/>
          <polygon class="sprinkles-3" points="1202.5 685.39 1222.33 628.89 1212.91 625.57 1193.06 682.07 1202.5 685.39"/>
          <polygon class="sprinkles-3" points="1233.67 825.7 1253.51 769.21 1244.08 765.89 1224.24 822.39 1233.67 825.7"/>
          <polygon class="sprinkles-3" points="1011 738.21 1030.84 681.68 1021.4 678.38 1001.56 734.88 1011 738.21"/>
          <polygon class="sprinkles-3" points="1377.12 532.45 1396.95 475.93 1387.53 472.62 1367.68 529.13 1377.12 532.45"/>
          <polygon class="sprinkles-3" points="78.87 632.7 70.58 627.11 58.39 645.19 66.69 650.78 78.87 632.7"/>
          <polygon class="sprinkles-3" points="23.1 407.4 31.39 412.99 43.58 394.9 35.28 389.31 23.1 407.4"/>
          <polygon class="sprinkles-3" points="354.19 318.09 324.73 361.84 333.02 367.42 362.49 323.67 354.19 318.09"/>
          <polygon class="sprinkles-3" points="142.79 432.07 151.07 437.66 180.54 393.9 172.25 388.31 142.79 432.07"/>
          <polygon class="sprinkles-3" points="493.38 200.68 484.04 360.24 494.02 360.82 503.37 201.27 493.38 200.68"/>
          <polygon class="sprinkles-3" points="387.54 773.61 431.2 619.86 421.58 617.12 377.92 770.87 387.54 773.61"/>
          <polygon class="sprinkles-3" points="571.67 172.03 559.5 68.66 549.57 69.84 561.73 173.2 571.67 172.03"/>
          <polygon class="sprinkles-3" points="556.44 329.33 566.32 327.69 549.58 226.81 539.72 228.45 556.44 329.33"/>
          <polygon class="sprinkles-3" points="172.06 456.95 188.79 557.82 198.65 556.19 181.93 455.31 172.06 456.95"/>
          <polygon class="sprinkles-3" points="829.53 367.42 819.67 369.06 836.4 469.94 846.26 468.3 829.53 367.42"/>
          <polygon class="sprinkles-3" points="824.26 647.85 807.54 546.97 797.66 548.6 814.4 649.49 824.26 647.85"/>
          <polygon class="sprinkles-3" points="661.09 429.02 644.34 328.14 634.48 329.76 651.22 430.65 661.09 429.02"/>
          <polygon class="sprinkles-3" points="1323.32 113.21 1314.01 109.53 1276.48 204.66 1285.79 208.32 1323.32 113.21"/>
          <polygon class="sprinkles-3" points="1404.28 56.01 1371.77 37.17 1366.74 45.81 1399.27 64.67 1404.28 56.01"/>
          <polygon class="sprinkles-3" points="1234.91 552.74 1331.78 690.01 1339.95 684.26 1243.09 546.97 1234.91 552.74"/>
          <polygon class="sprinkles-3" points="921.38 299.8 791.03 119.16 782.92 125.01 913.27 305.65 921.38 299.8"/>
          <polygon class="sprinkles-3" points="543.1 453.35 673.45 633.98 681.56 628.13 551.21 447.49 543.1 453.35"/>
          <polygon class="sprinkles-3" points="463.48 574.72 593.83 755.37 601.92 749.51 471.57 568.87 463.48 574.72"/>
          <polygon class="sprinkles-3" points="160.44 332.78 168.16 326.44 140.52 292.86 132.8 299.22 160.44 332.78"/>
          <polygon class="sprinkles-3" points="46.87 435.73 58.64 477.6 68.27 474.89 56.51 433.03 46.87 435.73"/>
          <polygon class="sprinkles-3" points="83.11 389.21 91.66 384.02 69.12 346.84 60.57 352 83.11 389.21"/>
          <polygon class="sprinkles-3" points="126.7 354.72 53.63 265.97 45.91 272.32 118.99 361.06 126.7 354.72"/>
          <polygon class="sprinkles-3" points="207.2 145.27 234.84 178.83 242.56 172.48 214.92 138.91 207.2 145.27"/>
          <polygon class="sprinkles-3" points="222.42 51.48 208.72 10.21 199.22 13.37 212.92 54.64 222.42 51.48"/>
          <polygon class="sprinkles-3" points="118.33 40.55 112.87 32.17 76.45 55.95 81.92 64.31 118.33 40.55"/>
          <polygon class="sprinkles-3" points="150.48 175.1 140.56 173.83 135.08 216.98 145.01 218.24 150.48 175.1"/>
          <polygon class="sprinkles-3" points="201.58 391.3 211.56 392.05 220.05 278.81 210.09 278.07 201.58 391.3"/>
          <polygon class="sprinkles-3" points="518.79 344.16 510.29 457.4 520.27 458.14 528.77 344.91 518.79 344.16"/>
          <polygon class="sprinkles-3" points="262.63 283.29 230.98 313.1 237.84 320.38 269.49 290.56 262.63 283.29"/>
          <polygon class="sprinkles-3" points="281.36 245.29 278.34 254.84 319.8 267.97 322.82 258.44 281.36 245.29"/>
          <polygon class="sprinkles-3" points="594.82 242.8 622.02 276.72 629.83 270.46 602.63 236.54 594.82 242.8"/>
          <polygon class="sprinkles-3" points="402.01 215.71 395.15 208.43 363.49 238.25 370.36 245.53 402.01 215.71"/>
          <polygon class="sprinkles-3" points="592.6 57.22 576.05 38.05 568.48 44.61 585.03 63.75 592.6 57.22"/>
          <polygon class="sprinkles-3" points="431.28 335.47 438.15 342.74 469.78 312.92 462.93 305.65 431.28 335.47"/>
          <polygon class="sprinkles-3" points="456.14 152.51 449.29 145.24 417.63 175.06 424.5 182.34 456.14 152.51"/>
          <polygon class="sprinkles-3" points="899.99 32.84 890.78 28.94 873.84 68.99 883.04 72.89 899.99 32.84"/>
          <polygon class="sprinkles-3" points="851.11 280.75 854.96 271.53 814.81 254.81 810.97 264.04 851.11 280.75"/>
          <polygon class="sprinkles-3" points="889.97 142.64 889.83 132.65 846.36 133.26 846.48 143.26 889.97 142.64"/>
          <polygon class="sprinkles-3" points="382.75 356.36 382.9 366.38 426.38 365.76 426.23 355.77 382.75 356.36"/>
          <polygon class="sprinkles-3" points="179.45 684.66 222.71 689.06 223.72 679.11 180.46 674.71 179.45 684.66"/>
          <polygon class="sprinkles-3" points="136.66 809.13 150.12 850.46 159.62 847.37 146.17 806.02 136.66 809.13"/>
          <polygon class="sprinkles-3" points="123.05 750.2 129.59 757.77 162.51 729.4 155.99 721.83 123.05 750.2"/>
          <polygon class="sprinkles-3" points="42.54 735.66 51.67 731.6 33.99 691.87 24.85 695.94 42.54 735.66"/>
          <polygon class="sprinkles-3" points="208.1 592.08 263.77 659.09 271.46 652.7 215.78 585.68 208.1 592.08"/>
          <polygon class="sprinkles-3" points="382.75 533.89 438.42 600.9 446.12 594.5 390.45 527.49 382.75 533.89"/>
          <polygon class="sprinkles-3" points="458.59 477.27 511.04 499.81 514.99 490.6 462.54 468.08 458.59 477.27"/>
          <polygon class="sprinkles-3" points="584.13 442.41 636.57 464.95 640.52 455.76 588.08 433.22 584.13 442.41"/>
          <polygon class="sprinkles-3" points="1057.1 120.84 1021.92 95.28 1016.04 103.37 1051.21 128.94 1057.1 120.84"/>
          <polygon class="sprinkles-3" points="1231.57 155.73 1237.45 147.64 1202.27 122.08 1196.4 130.18 1231.57 155.73"/>
          <polygon class="sprinkles-3" points="698.95 96.77 658.57 80.65 654.87 89.95 695.25 106.05 698.95 96.77"/>
          <polygon class="sprinkles-3" points="799.06 82.73 798.51 39.24 788.5 39.38 789.07 82.85 799.06 82.73"/>
          <polygon class="sprinkles-3" points="793.78 278.15 735.78 61.75 726.11 64.34 784.13 280.75 793.78 278.15"/>
          <polygon class="sprinkles-3" points="928.9 89.2 919.03 87.62 906.5 165.98 916.38 167.56 928.9 89.2"/>
          <polygon class="sprinkles-3" points="1170.41 409.11 1157.88 487.48 1167.77 489.06 1180.28 410.71 1170.41 409.11"/>
          <polygon class="sprinkles-3" points="867.01 491.45 946.31 488.91 945.99 478.92 866.69 481.45 867.01 491.45"/>
          <polygon class="sprinkles-3" points="519.54 584.02 519.85 594.01 599.15 591.48 598.85 581.47 519.54 584.02"/>
          <polygon class="sprinkles-3" points="597.45 722.45 676.77 719.93 676.45 709.93 597.14 712.46 597.45 722.45"/>
          <polygon class="sprinkles-3" points="423.97 740.37 503.29 737.84 502.97 727.84 423.66 730.38 423.97 740.37"/>
          <polygon class="sprinkles-3" points="741.45 435.16 807.65 391.42 802.13 383.08 735.93 426.83 741.45 435.16"/>
          <polygon class="sprinkles-3" points="755.66 546.48 750.14 538.14 683.94 581.89 689.46 590.23 755.66 546.48"/>
          <polygon class="sprinkles-3" points="737.17 722.9 724.84 801.29 734.72 802.84 747.04 724.45 737.17 722.9"/>
          <polygon class="sprinkles-3" points="686.61 736.87 653.5 758.76 659.01 767.11 692.13 745.21 686.61 736.87"/>
          <polygon class="sprinkles-3" points="633.78 906.43 695.92 857.1 689.71 849.27 627.57 898.6 633.78 906.43"/>
          <polygon class="sprinkles-3" points="1123.25 122.73 1113.37 121.16 1100.84 199.5 1110.72 201.09 1123.25 122.73"/>
          <polygon class="sprinkles-3" points="1201.98 185.23 1192.68 181.55 1163.43 255.3 1172.73 258.99 1201.98 185.23"/>
          <polygon class="sprinkles-3" points="1025.62 491 1057.41 269.2 1047.51 267.78 1015.72 489.57 1025.62 491"/>
          <polygon class="sprinkles-3" points="928.9 354.5 938.8 355.93 970.59 134.13 960.7 132.7 928.9 354.5"/>
          <polygon class="sprinkles-3" points="709.9 304.54 678.12 526.34 688.01 527.75 719.81 305.96 709.9 304.54"/>
          <polygon class="sprinkles-3" points="735.93 306.6 870.78 349.89 873.84 340.37 739 297.08 735.93 306.6"/>
          <polygon class="sprinkles-3" points="113.09 256.61 169.42 274.67 172.47 265.16 116.15 247.08 113.09 256.61"/>
          <polygon class="sprinkles-3" points="1102.54 280.08 1069.4 142.38 1059.67 144.72 1092.82 282.43 1102.54 280.08"/>
          <polygon class="sprinkles-3" points="1112.53 541.35 1079.4 403.64 1069.68 405.99 1102.82 543.69 1112.53 541.35"/>
          <polygon class="sprinkles-3" points="409.98 310.47 515.9 125.9 507.22 120.93 401.31 305.5 409.98 310.47"/>
          <polygon class="sprinkles-3" points="172.06 347.86 164.43 341.41 73.48 448.85 81.11 455.31 172.06 347.86"/>
          <polygon class="sprinkles-3" points="603.88 312.83 754.04 245.68 749.95 236.54 599.79 303.71 603.88 312.83"/>
          <polygon class="sprinkles-3" points="1375.01 94.71 1366.01 90.36 1347.08 129.51 1356.07 133.85 1375.01 94.71"/>
          <polygon class="sprinkles-3" points="1020.52 221.56 984.37 61.74 974.62 63.95 1010.77 223.78 1020.52 221.56"/>
          <polygon class="sprinkles-3" points="1303.27 1207.66 1417.32 1181.87 1417.32 1171.6 1301.07 1197.89 1303.27 1207.66"/>
          <polygon class="sprinkles-3" points="1348.54 283.29 1417.32 235.96 1417.32 223.82 1342.87 275.04 1348.54 283.29"/>
          <polygon class="sprinkles-3" points="1362.91 436.31 1417.32 379.64 1417.32 365.21 1355.71 429.39 1362.91 436.31"/>
          <polygon class="sprinkles-3" points="1348.95 722.72 1417.32 651.51 1417.32 637.06 1341.74 715.8 1348.95 722.72"/>
          <polygon class="sprinkles-3" points="1376.38 557.65 1417.32 552.02 1417.32 541.93 1375.01 547.74 1376.38 557.65"/>
          <polygon class="sprinkles-3" points="1398.96 880.28 1417.32 908.14 1417.32 889.98 1407.31 874.77 1398.96 880.28"/>
          <polygon class="sprinkles-3" points="1356.64 1076.08 1417.32 1122.6 1417.32 1110 1362.72 1068.15 1356.64 1076.08"/>
          <polygon class="sprinkles-3" points="1326.76 1294.82 1417.32 1302.98 1417.32 1292.93 1327.66 1284.87 1326.76 1294.82"/>
          <polygon class="sprinkles-3" points="1395.02 1032.06 1417.32 1063.86 1417.32 1046.44 1403.21 1026.32 1395.02 1032.06"/>
          <polygon class="sprinkles-3" points="1392.52 1310.44 1417.32 1345.79 1417.32 1328.38 1400.7 1304.69 1392.52 1310.44"/>
          <polygon class="sprinkles-3" points="1379.25 1255.85 1417.32 1212.86 1417.32 1197.77 1371.77 1249.21 1379.25 1255.85"/>
          <polygon class="sprinkles-3" points="1382.31 822.31 1417.32 832.53 1417.32 822.11 1385.12 812.7 1382.31 822.31"/>
          <polygon class="sprinkles-3" points="1320.26 753.56 1417.32 792.4 1417.32 781.63 1323.98 744.27 1320.26 753.56"/>
          <polygon class="sprinkles-3" points="1321.1 928.38 1417.32 966.89 1417.32 956.12 1324.82 919.09 1321.1 928.38"/>
          <polygon class="sprinkles-3" points="199.49 1213.47 326.64 1310.93 332.74 1302.99 205.59 1205.54 199.49 1213.47"/>
          <polygon class="sprinkles-3" points="568.22 853.19 704.22 807.71 701.04 798.23 565.05 843.71 568.22 853.19"/>
          <polygon class="sprinkles-3" points="620.47 780.89 505.97 796.03 507.28 805.94 621.77 790.8 620.47 780.89"/>
          <polygon class="sprinkles-3" points="199.09 744.27 313.6 729.14 312.28 719.23 197.78 734.36 199.09 744.27"/>
          <polygon class="sprinkles-3" points="344.75 851.54 142.26 770.49 138.54 779.79 341.04 860.82 344.75 851.54"/>
          <polygon class="sprinkles-3" points="583.97 1138.58 440.87 1144.1 441.25 1154.1 584.36 1148.58 583.97 1138.58"/>
          <polygon class="sprinkles-3" points="727.99 932.08 727.61 922.08 584.49 927.6 584.87 937.6 727.99 932.08"/>
          <polygon class="sprinkles-3" points="1406.35 279.49 1417.32 286.31 1417.32 274.54 1411.62 271 1406.35 279.49"/>
          <polygon class="sprinkles-3" points="1341.38 425.72 1346.66 417.24 1320.77 401.15 1315.49 409.64 1341.38 425.72"/>
          <polygon class="sprinkles-3" points="1311.31 785.25 1285.41 769.14 1280.14 777.64 1306.03 793.74 1311.31 785.25"/>
          <polygon class="sprinkles-3" points="1041.35 799.14 1031.89 795.92 1012.96 851.49 1022.43 854.71 1041.35 799.14"/>
          <polygon class="sprinkles-3" points="1238.13 295.8 1232.85 304.31 1258.74 320.39 1264.02 311.9 1238.13 295.8"/>
          <polygon class="sprinkles-3" points="992.66 300.88 982.74 299.61 971.95 384.63 981.88 385.89 992.66 300.88"/>
          <polygon class="sprinkles-3" points="1238.87 465.19 1212.97 449.09 1207.7 457.58 1233.6 473.67 1238.87 465.19"/>
          <polygon class="sprinkles-3" points="1041.82 503.31 1067.72 519.39 1073 510.91 1047.1 494.82 1041.82 503.31"/>
          <polygon class="sprinkles-3" points="1119.16 491.02 1145.06 507.11 1150.34 498.62 1124.44 482.54 1119.16 491.02"/>
          <polygon class="sprinkles-3" points="977.07 409.64 1002.97 425.72 1008.25 417.24 982.34 401.15 977.07 409.64"/>
          <polygon class="sprinkles-3" points="1041.35 718.02 1067.24 734.11 1072.52 725.61 1046.62 709.53 1041.35 718.02"/>
          <polygon class="sprinkles-3" points="1223.3 390.47 1162.1 352.46 1156.82 360.95 1218.02 398.96 1223.3 390.47"/>
          <polygon class="sprinkles-3" points="1101.93 386.52 1135.23 450.4 1144.1 445.78 1110.78 381.9 1101.93 386.52"/>
          <polygon class="sprinkles-3" points="1041.82 232.74 1067.72 248.83 1073 240.34 1047.1 224.24 1041.82 232.74"/>
          <polygon class="sprinkles-3" points="1123.01 278.81 1146.86 329.13 1155.9 324.84 1132.05 274.54 1123.01 278.81"/>
          <polygon class="sprinkles-3" points="940.33 369.81 932.34 425.48 942.24 426.89 950.23 371.24 940.33 369.81"/>
          <polygon class="sprinkles-3" points="988.28 231.18 979.48 235.91 1006.87 286.81 1015.68 282.08 988.28 231.18"/>
          <polygon class="sprinkles-3" points="881.76 388.26 907.64 404.34 912.93 395.85 887.02 379.76 881.76 388.26"/>
          <polygon class="sprinkles-3" points="574.19 660.03 579.46 651.53 553.57 635.44 548.29 643.94 574.19 660.03"/>
          <polygon class="sprinkles-3" points="924.04 456.84 953.13 447.66 950.12 438.12 921.04 447.31 924.04 456.84"/>
          <polygon class="sprinkles-3" points="871.01 674.13 874.01 683.67 903.1 674.5 900.07 664.96 871.01 674.13"/>
          <polygon class="sprinkles-3" points="915.69 522.58 934.14 546.85 942.1 540.79 923.65 516.52 915.69 522.58"/>
          <polygon class="sprinkles-3" points="788.68 647.56 726.66 667.12 729.65 676.66 791.7 657.1 788.68 647.56"/>
          <polygon class="sprinkles-3" points="773.65 749.52 817.17 701.2 809.73 694.51 766.21 742.83 773.65 749.52"/>
          <polygon class="sprinkles-3" points="788.54 889.2 775.06 778.1 765.12 779.31 778.62 890.42 788.54 889.2"/>
          <polygon class="sprinkles-3" points="767.07 603.9 738 613.07 741 622.62 770.08 613.43 767.07 603.9"/>
          <polygon class="sprinkles-3" points="858.79 298.04 884.69 314.13 889.97 305.63 864.07 289.54 858.79 298.04"/>
          <polygon class="sprinkles-3" points="798 465.87 799.56 435.42 789.56 434.91 788.01 465.37 798 465.87"/>
          <polygon class="sprinkles-3" points="570.53 419.82 572.1 389.37 562.1 388.87 560.55 419.32 570.53 419.82"/>
          <polygon class="sprinkles-3" points="663.8 520.24 661.19 510.59 631.77 518.57 634.39 528.21 663.8 520.24"/>
          <polygon class="sprinkles-3" points="757.9 348.78 752.62 357.27 778.52 373.37 783.79 364.86 757.9 348.78"/>
          <polygon class="sprinkles-3" points="511.63 524.74 562.54 556.36 567.82 547.88 516.91 516.24 511.63 524.74"/>
          <polygon class="sprinkles-3" points="493.05 700.4 518.97 716.5 524.24 708 498.34 691.91 493.05 700.4"/>
          <polygon class="sprinkles-3" points="376.88 670.89 369.69 663.95 348.49 685.85 355.68 692.81 376.88 670.89"/>
          <polygon class="sprinkles-3" points="261.53 688.12 287.43 704.2 292.71 695.7 266.8 679.62 261.53 688.12"/>
          <polygon class="sprinkles-3" points="246.83 796.71 264.8 772.07 256.73 766.17 238.74 790.8 246.83 796.71"/>
          <polygon class="sprinkles-3" points="296.02 938.16 290.75 946.65 316.64 962.74 321.92 954.25 296.02 938.16"/>
          <polygon class="sprinkles-3" points="60.66 1343.69 51.34 1340.05 40.25 1368.44 49.56 1372.09 60.66 1343.69"/>
          <polygon class="sprinkles-3" points="362.25 1365.27 388.13 1381.36 393.42 1372.87 367.52 1356.77 362.25 1365.27"/>
          <polygon class="sprinkles-3" points="255.41 1392.91 281.3 1409 286.59 1400.5 260.7 1384.41 255.41 1392.91"/>
          <polygon class="sprinkles-3" points="107.53 1364.09 107.53 1374.08 138.01 1374.06 138.01 1364.05 107.53 1364.09"/>
          <polygon class="sprinkles-3" points="94.63 1216.65 68.73 1200.57 63.45 1209.06 89.35 1225.16 94.63 1216.65"/>
          <polygon class="sprinkles-3" points="169.93 1241.04 175.21 1232.55 149.31 1216.45 144.03 1224.95 169.93 1241.04"/>
          <polygon class="sprinkles-3" points="447.08 876.5 452.36 867.99 426.46 851.91 421.18 860.4 447.08 876.5"/>
          <polygon class="sprinkles-3" points="1299.9 534.34 1325.79 550.43 1331.07 541.93 1305.17 525.85 1299.9 534.34"/>
          <polygon class="sprinkles-3" points="1286.89 849.76 1296.86 848.94 1294.37 818.55 1284.4 819.37 1286.89 849.76"/>
          <polygon class="sprinkles-3" points="1141.29 794.98 1133.1 800.72 1166.78 848.75 1174.97 843.01 1141.29 794.98"/>
          <polygon class="sprinkles-3" points="1238.87 421.94 1264.77 438.03 1270.05 429.53 1244.14 413.44 1238.87 421.94"/>
          <polygon class="sprinkles-3" points="1155.04 221.27 1129.13 205.18 1123.87 213.67 1149.77 229.76 1155.04 221.27"/>
          <polygon class="sprinkles-3" points="1417.32 1377.32 1417.32 1366.51 1415 1367.03 1417.32 1377.32"/>
          <polygon class="sprinkles-3" points="1319.22 583.95 1417.32 592.01 1417.32 582 1320.04 573.99 1319.22 583.95"/>
          <polygon class="sprinkles-3" points="720.34 479.45 914.81 568.75 918.99 559.66 724.52 470.34 720.34 479.45"/>
          <polygon class="sprinkles-3" points="612.94 1211.59 605.01 1205.53 576.7 1242.42 584.63 1248.5 612.94 1211.59"/>
          <polygon class="sprinkles-3" points="404.55 1312.17 413.82 1308.41 382.28 1230.66 373.01 1234.42 404.55 1312.17"/>
          <polygon class="sprinkles-3" points="525.93 1187.48 538.09 1290.84 548.03 1289.67 535.87 1186.3 525.93 1187.48"/>
          <polygon class="sprinkles-3" points="926.43 1276.95 1025.45 1309 1028.55 1299.49 929.52 1267.43 926.43 1276.95"/>
          <polygon class="sprinkles-3" points="822.11 1320.41 907.97 1379.23 913.63 1370.98 827.76 1312.16 822.11 1320.41"/>
          <polygon class="sprinkles-3" points="538.74 1108.42 403.89 1065.14 400.84 1074.66 535.69 1117.94 538.74 1108.42"/>
          <polygon class="sprinkles-3" points="851.52 1083.21 791.82 1057.01 787.8 1066.17 847.5 1092.38 851.52 1083.21"/>
          <polygon class="sprinkles-3" points="1115.79 722.02 1131.19 695.28 1122.54 690.28 1107.13 717.02 1115.79 722.02"/>
          <polygon class="sprinkles-3" points="1390.98 738.59 1406.4 711.86 1397.73 706.85 1382.31 733.6 1390.98 738.59"/>
          <polygon class="sprinkles-3" points="1212.34 944.21 1204.04 938.62 1191.85 956.7 1200.16 962.29 1212.34 944.21"/>
          <polygon class="sprinkles-3" points="1273.84 1240.31 1265.55 1234.72 1253.37 1252.8 1261.67 1258.39 1273.84 1240.31"/>
          <polygon class="sprinkles-3" points="1129.39 856.83 1121.1 851.25 1108.92 869.34 1117.22 874.92 1129.39 856.83"/>
          <polygon class="sprinkles-3" points="997.73 1224.4 989.44 1218.81 977.25 1236.91 985.55 1242.51 997.73 1224.4"/>
          <polygon class="sprinkles-3" points="897.33 1331.45 905.63 1337.04 917.8 1318.94 909.52 1313.35 897.33 1331.45"/>
          <polygon class="sprinkles-3" points="719.36 1237.86 735.37 1209.15 726.65 1204.29 710.62 1232.98 719.36 1237.86"/>
          <polygon class="sprinkles-3" points="928.19 1053.54 919.51 1058.49 945.97 1104.96 954.67 1100.02 928.19 1053.54"/>
          <polygon class="sprinkles-3" points="288.81 1209.96 280.52 1204.37 268.34 1222.46 276.64 1228.04 288.81 1209.96"/>
          <polygon class="sprinkles-3" points="850.8 1238.08 842.51 1232.49 814.02 1274.78 822.32 1280.37 850.8 1238.08"/>
          <polygon class="sprinkles-3" points="916.58 901.1 869.8 970.55 878.09 976.14 924.87 906.68 916.58 901.1"/>
          <polygon class="sprinkles-3" points="1304.4 1082.96 1338.12 1032.89 1329.83 1027.3 1296.1 1077.37 1304.4 1082.96"/>
          <polygon class="sprinkles-3" points="1170.23 983.38 1161.94 977.79 1119.16 1041.31 1127.45 1046.89 1170.23 983.38"/>
          <polygon class="sprinkles-3" points="1119.16 895.3 1076.38 958.81 1084.68 964.4 1127.45 900.9 1119.16 895.3"/>
          <polygon class="sprinkles-3" points="825.12 1013.79 867.86 994.75 863.8 985.62 821.05 1004.67 825.12 1013.79"/>
          <polygon class="sprinkles-3" points="1198.4 1059.33 1190.1 1053.74 1160.64 1097.49 1168.94 1103.07 1198.4 1059.33"/>
          <polygon class="sprinkles-3" points="1409.53 982.25 1401.22 976.66 1371.77 1020.41 1380.06 1025.99 1409.53 982.25"/>
          <polygon class="sprinkles-3" points="888.32 1222.33 878.7 1219.61 853.69 1307.68 863.31 1310.41 888.32 1222.33"/>
          <polygon class="sprinkles-3" points="462.11 1177.38 478.84 1278.27 488.7 1276.63 471.97 1175.75 462.11 1177.38"/>
          <polygon class="sprinkles-3" points="767.37 1132.01 757.5 1133.64 767.96 1196.67 777.82 1195.04 767.37 1132.01"/>
          <polygon class="sprinkles-3" points="690.68 1091.54 680.82 1093.19 691.29 1156.22 701.14 1154.58 690.68 1091.54"/>
          <polygon class="sprinkles-3" points="1154.44 1207.14 1144.58 1208.77 1161.32 1309.65 1171.18 1308.02 1154.44 1207.14"/>
          <polygon class="sprinkles-3" points="854.96 1214.58 838.22 1113.7 828.36 1115.33 845.08 1216.21 854.96 1214.58"/>
          <polygon class="sprinkles-3" points="884.94 1174.75 885.03 1117.95 875.04 1117.93 874.93 1174.73 884.94 1174.75"/>
          <polygon class="sprinkles-3" points="574.28 1093.05 552.02 1058.36 543.61 1063.75 565.87 1098.45 574.28 1093.05"/>
          <polygon class="sprinkles-3" points="700.89 1208.23 570.53 1027.58 562.43 1033.44 692.78 1214.08 700.89 1208.23"/>
          <polygon class="sprinkles-3" points="987.51 1037.54 979.01 1150.77 988.98 1151.52 997.49 1038.3 987.51 1037.54"/>
          <polygon class="sprinkles-3" points="981.16 834.25 937.67 834.86 937.82 844.86 981.31 844.25 981.16 834.25"/>
          <polygon class="sprinkles-3" points="977.99 1040.55 922.31 973.55 914.63 979.94 970.29 1046.95 977.99 1040.55"/>
          <polygon class="sprinkles-3" points="1005.68 979.5 953.23 956.96 949.3 966.17 1001.74 988.69 1005.68 979.5"/>
          <polygon class="sprinkles-3" points="674.22 1255.85 678.16 1246.66 625.72 1224.14 621.77 1233.31 674.22 1255.85"/>
          <polygon class="sprinkles-3" points="1299.32 1023.85 1246.87 1001.32 1242.93 1010.52 1295.37 1033.04 1299.32 1023.85"/>
          <polygon class="sprinkles-3" points="1100.19 1329.01 1100.51 1339.01 1179.81 1336.49 1179.49 1326.49 1100.19 1329.01"/>
          <polygon class="sprinkles-3" points="1095.02 1166.88 1037.46 1221.5 1044.33 1228.75 1101.9 1174.15 1095.02 1166.88"/>
          <polygon class="sprinkles-3" points="1098.33 1029.69 1092.82 1021.37 1026.63 1065.13 1032.14 1073.46 1098.33 1029.69"/>
          <polygon class="sprinkles-3" points="553.43 1003.26 487.24 1047.02 492.75 1055.35 558.95 1011.61 553.43 1003.26"/>
          <polygon class="sprinkles-3" points="307.85 1103.83 254.58 1070.75 249.31 1079.24 302.57 1112.33 307.85 1103.83"/>
          <polygon class="sprinkles-3" points="50.46 1105.66 45.19 1114.14 71.08 1130.23 76.37 1121.74 50.46 1105.66"/>
          <polygon class="sprinkles-3" points="246.6 928.14 220.7 912.04 215.42 920.53 241.32 936.62 246.6 928.14"/>
          <polygon class="sprinkles-3" points="1210.65 1138.2 1148.61 1157.76 1151.63 1167.3 1213.66 1147.75 1210.65 1138.2"/>
          <polygon class="sprinkles-3" points="1356 1326.67 1352.99 1317.12 1323.9 1326.3 1326.91 1335.85 1356 1326.67"/>
          <polygon class="sprinkles-3" points="1251.67 1295.54 1254.68 1305.08 1283.77 1295.9 1280.76 1286.36 1251.67 1295.54"/>
          <polygon class="sprinkles-3" points="578.78 1368.88 581.79 1378.42 610.86 1369.25 607.86 1359.72 578.78 1368.88"/>
          <polygon class="sprinkles-3" points="571.25 1164.15 574.25 1173.69 603.32 1164.52 600.33 1154.98 571.25 1164.15"/>
          <polygon class="sprinkles-3" points="616.71 1277.46 593.46 1257.72 586.98 1265.36 610.23 1285.09 616.71 1277.46"/>
          <polygon class="sprinkles-3" points="326.56 1197.81 323.24 1262.99 333.24 1263.51 336.54 1198.33 326.56 1197.81"/>
          <polygon class="sprinkles-3" points="705.53 1049.18 676.11 1057.16 678.72 1066.81 708.15 1058.84 705.53 1049.18"/>
          <polygon class="sprinkles-3" points="327.22 1165.78 324.6 1156.13 295.18 1164.12 297.79 1173.77 327.22 1165.78"/>
          <polygon class="sprinkles-3" points="57.46 1239.98 48.95 1234.72 32.92 1260.66 41.43 1265.92 57.46 1239.98"/>
          <polygon class="sprinkles-3" points="372.83 1080.88 342.34 1080.71 342.3 1090.71 372.78 1090.87 372.83 1080.88"/>
          <polygon class="sprinkles-3" points="205.9 825.44 176.48 833.42 179.1 843.06 208.52 835.09 205.9 825.44"/>
          <polygon class="sprinkles-3" points="744 990.31 741.39 980.64 711.96 988.63 714.59 998.28 744 990.31"/>
          <polygon class="sprinkles-3" points="1198.29 784.68 1172.39 768.59 1167.12 777.08 1193.01 793.19 1198.29 784.68"/>
          <polygon class="sprinkles-3" points="603.32 1020.4 601.85 1030.29 632.01 1034.78 633.48 1024.89 603.32 1020.4"/>
          <polygon class="sprinkles-3" points="1221.87 918.29 1247.78 934.38 1253.04 925.89 1227.15 909.79 1221.87 918.29"/>
          <polygon class="sprinkles-3" points="865.66 908.58 844.45 930.5 851.65 937.46 872.86 915.54 865.66 908.58"/>
          <polygon class="sprinkles-3" points="816.19 923.45 809.01 916.49 787.8 938.39 794.99 945.36 816.19 923.45"/>
          <polygon class="sprinkles-3" points="717.35 826.82 743.5 842.49 748.66 833.92 722.5 818.24 717.35 826.82"/>
          <polygon class="sprinkles-3" points="716.99 1020.22 522.52 930.92 518.34 940 712.81 1029.31 716.99 1020.22"/>
          <polygon class="sprinkles-3" points="736.17 153.55 635.12 145.24 634.29 155.21 735.34 163.52 736.17 153.55"/>
        </g>
      </g>
    </pattern>
  </defs>
  <g id="Layer_1-2" data-name="Layer 1">
    <rect class="sprinkles-2" width="1262.15" height="650.54"/>
  </g>
</svg>