<svg xmlns="http://www.w3.org/2000/svg" viewBox="0 0 23.5 23.5">
	<defs>
		<style>
			.graph-paper-1 {
				fill: #98b6e2;
				opacity: 0.5;
			}
		</style>
	</defs>
	<title>graph paper</title>
	<path class="graph-paper-1" d="M917.5,0H0V165.5H941V0ZM894,1h22.5V23.5H894Zm22.5,46H894V24.5h22.5Zm0,23.5H894V48h22.5Zm0,23.5H894V71.5h22.5Zm0,23.5H894V95h22.5Zm0,23.5H894V118.5h22.5Zm-892-22.5H47V141H24.5Zm0-23.5H47v22.5H24.5Zm0-23.5H47V94H24.5Zm0-23.5H47V70.5H24.5Zm0-23.5H47V47H24.5ZM893,47H870.5V24.5H893Zm0,23.5H870.5V48H893ZM893,94H870.5V71.5H893Zm0,23.5H870.5V95H893ZM48,95H70.5v22.5H48Zm0-23.5H70.5V94H48ZM48,48H70.5V70.5H48ZM869.5,70.5H847V48h22.5Zm0,23.5H847V71.5h22.5ZM71.5,71.5H94V94H71.5Zm23.5,0h22.5V94H95Zm23.5,0H141V94H118.5Zm23.5,0h22.5V94H142Zm23.5,0H188V94H165.5Zm23.5,0h22.5V94H189Zm23.5,0H235V94H212.5Zm23.5,0h22.5V94H236Zm23.5,0H282V94H259.5Zm23.5,0h22.5V94H283Zm23.5,0H329V94H306.5Zm23.5,0h22.5V94H330Zm23.5,0H376V94H353.5Zm23.5,0h22.5V94H377Zm23.5,0H423V94H400.5Zm23.5,0h22.5V94H424Zm23.5,0H470V94H447.5Zm23.5,0h22.5V94H471Zm23.5,0H517V94H494.5Zm23.5,0h22.5V94H518Zm23.5,0H564V94H541.5Zm23.5,0h22.5V94H565Zm23.5,0H611V94H588.5Zm23.5,0h22.5V94H612Zm23.5,0H658V94H635.5Zm23.5,0h22.5V94H659Zm23.5,0H705V94H682.5Zm23.5,0h22.5V94H706Zm23.5,0H752V94H729.5Zm23.5,0h22.5V94H753Zm23.5,0H799V94H776.5Zm23.5,0h22.5V94H800Zm23.5,0H846V94H823.5Zm22.5-1H823.5V48H846Zm-23.5,0H800V48h22.5Zm-23.5,0H776.5V48H799Zm-23.5,0H753V48h22.5Zm-23.5,0H729.5V48H752Zm-23.5,0H706V48h22.5Zm-23.5,0H682.5V48H705Zm-23.5,0H659V48h22.5Zm-23.5,0H635.5V48H658Zm-23.5,0H612V48h22.5Zm-23.5,0H588.5V48H611Zm-23.5,0H565V48h22.5Zm-23.5,0H541.5V48H564Zm-23.5,0H518V48h22.5Zm-23.5,0H494.5V48H517Zm-23.5,0H471V48h22.5Zm-23.5,0H447.5V48H470Zm-23.5,0H424V48h22.5Zm-23.5,0H400.5V48H423Zm-23.5,0H377V48h22.5Zm-23.5,0H353.5V48H376Zm-23.5,0H330V48h22.5Zm-23.5,0H306.5V48H329Zm-23.5,0H283V48h22.5Zm-23.5,0H259.5V48H282Zm-23.5,0H236V48h22.5Zm-23.5,0H212.5V48H235Zm-23.5,0H189V48h22.5Zm-23.5,0H165.5V48H188Zm-23.5,0H142V48h22.5Zm-23.5,0H118.5V48H141Zm-23.5,0H95V48h22.5ZM94,70.5H71.5V48H94ZM71.5,95H94v22.5H71.5ZM95,95h22.5v22.5H95Zm23.5,0H141v22.5H118.5ZM142,95h22.5v22.5H142Zm23.5,0H188v22.5H165.5ZM189,95h22.5v22.5H189Zm23.5,0H235v22.5H212.5ZM236,95h22.5v22.5H236Zm23.5,0H282v22.5H259.5ZM283,95h22.5v22.5H283Zm23.5,0H329v22.5H306.5ZM330,95h22.5v22.5H330Zm23.5,0H376v22.5H353.5ZM377,95h22.5v22.5H377Zm23.5,0H423v22.5H400.5ZM424,95h22.5v22.5H424Zm23.5,0H470v22.5H447.5ZM471,95h22.5v22.5H471Zm23.5,0H517v22.5H494.5ZM518,95h22.5v22.5H518Zm23.5,0H564v22.5H541.5ZM565,95h22.5v22.5H565Zm23.5,0H611v22.5H588.5ZM612,95h22.5v22.5H612Zm23.5,0H658v22.5H635.5ZM659,95h22.5v22.5H659Zm23.5,0H705v22.5H682.5ZM706,95h22.5v22.5H706Zm23.5,0H752v22.5H729.5ZM753,95h22.5v22.5H753Zm23.5,0H799v22.5H776.5ZM800,95h22.5v22.5H800Zm23.5,0H846v22.5H823.5ZM847,95h22.5v22.5H847Zm22.5-48H847V24.5h22.5ZM846,47H823.5V24.5H846Zm-23.5,0H800V24.5h22.5ZM799,47H776.5V24.5H799Zm-23.5,0H753V24.5h22.5ZM752,47H729.5V24.5H752Zm-23.5,0H706V24.5h22.5ZM705,47H682.5V24.5H705Zm-23.5,0H659V24.5h22.5ZM658,47H635.5V24.5H658Zm-23.5,0H612V24.5h22.5ZM611,47H588.5V24.5H611Zm-23.5,0H565V24.5h22.5ZM564,47H541.5V24.5H564Zm-23.5,0H518V24.5h22.5ZM517,47H494.5V24.5H517Zm-23.5,0H471V24.5h22.5ZM470,47H447.5V24.5H470Zm-23.5,0H424V24.5h22.5ZM423,47H400.5V24.5H423Zm-23.5,0H377V24.5h22.5ZM376,47H353.5V24.5H376Zm-23.5,0H330V24.5h22.5ZM329,47H306.5V24.5H329Zm-23.5,0H283V24.5h22.5ZM282,47H259.5V24.5H282Zm-23.5,0H236V24.5h22.5ZM235,47H212.5V24.5H235Zm-23.5,0H189V24.5h22.5ZM188,47H165.5V24.5H188Zm-23.5,0H142V24.5h22.5ZM141,47H118.5V24.5H141Zm-23.5,0H95V24.5h22.5ZM94,47H71.5V24.5H94ZM70.5,47H48V24.5H70.5ZM48,118.5H70.5V141H48Zm23.5,0H94V141H71.5Zm23.5,0h22.5V141H95Zm23.5,0H141V141H118.5Zm23.5,0h22.5V141H142Zm23.5,0H188V141H165.5Zm23.5,0h22.5V141H189Zm23.5,0H235V141H212.5Zm23.5,0h22.5V141H236Zm23.5,0H282V141H259.5Zm23.5,0h22.5V141H283Zm23.5,0H329V141H306.5Zm23.5,0h22.5V141H330Zm23.5,0H376V141H353.5Zm23.5,0h22.5V141H377Zm23.5,0H423V141H400.5Zm23.5,0h22.5V141H424Zm23.5,0H470V141H447.5Zm23.5,0h22.5V141H471Zm23.5,0H517V141H494.5Zm23.5,0h22.5V141H518Zm23.5,0H564V141H541.5Zm23.5,0h22.5V141H565Zm23.5,0H611V141H588.5Zm23.5,0h22.5V141H612Zm23.5,0H658V141H635.5Zm23.5,0h22.5V141H659Zm23.5,0H705V141H682.5Zm23.5,0h22.5V141H706Zm23.5,0H752V141H729.5Zm23.5,0h22.5V141H753Zm23.5,0H799V141H776.5Zm23.5,0h22.5V141H800Zm23.5,0H846V141H823.5Zm23.5,0h22.5V141H847Zm23.5,0H893V141H870.5ZM870.5,1H893V23.5H870.5ZM847,1h22.5V23.5H847ZM823.5,1H846V23.5H823.5ZM800,1h22.5V23.5H800ZM776.5,1H799V23.5H776.5ZM753,1h22.5V23.5H753ZM729.5,1H752V23.5H729.5ZM706,1h22.5V23.5H706ZM682.5,1H705V23.5H682.5ZM659,1h22.5V23.5H659ZM635.5,1H658V23.5H635.5ZM612,1h22.5V23.5H612ZM588.5,1H611V23.5H588.5ZM565,1h22.5V23.5H565ZM541.5,1H564V23.5H541.5ZM518,1h22.5V23.5H518ZM494.5,1H517V23.5H494.5ZM471,1h22.5V23.5H471ZM447.5,1H470V23.5H447.5ZM424,1h22.5V23.5H424ZM400.5,1H423V23.5H400.5ZM377,1h22.5V23.5H377ZM353.5,1H376V23.5H353.5ZM330,1h22.5V23.5H330ZM306.5,1H329V23.5H306.5ZM283,1h22.5V23.5H283ZM259.5,1H282V23.5H259.5ZM236,1h22.5V23.5H236ZM212.5,1H235V23.5H212.5ZM189,1h22.5V23.5H189ZM165.5,1H188V23.5H165.5ZM142,1h22.5V23.5H142ZM118.5,1H141V23.5H118.5ZM95,1h22.5V23.5H95ZM71.5,1H94V23.5H71.5ZM48,1H70.5V23.5H48ZM24.5,1H47V23.5H24.5ZM1,1H23.5V23.5H1ZM1,24.5H23.5V47H1ZM1,48H23.5V70.5H1ZM1,71.5H23.5V94H1ZM1,95H23.5v22.5H1Zm0,23.5H23.5V141H1Zm22.5,46H1V142H23.5Zm23.5,0H24.5V142H47Zm23.5,0H48V142H70.5Zm23.5,0H71.5V142H94Zm23.5,0H95V142h22.5Zm23.5,0H118.5V142H141Zm23.5,0H142V142h22.5Zm23.5,0H165.5V142H188Zm23.5,0H189V142h22.5Zm23.5,0H212.5V142H235Zm23.5,0H236V142h22.5Zm23.5,0H259.5V142H282Zm23.5,0H283V142h22.5Zm23.5,0H306.5V142H329Zm23.5,0H330V142h22.5Zm23.5,0H353.5V142H376Zm23.5,0H377V142h22.5Zm23.5,0H400.5V142H423Zm23.5,0H424V142h22.5Zm23.5,0H447.5V142H470Zm23.5,0H471V142h22.5Zm23.5,0H494.5V142H517Zm23.5,0H518V142h22.5Zm23.5,0H541.5V142H564Zm23.5,0H565V142h22.5Zm23.5,0H588.5V142H611Zm23.5,0H612V142h22.5Zm23.5,0H635.5V142H658Zm23.5,0H659V142h22.5Zm23.5,0H682.5V142H705Zm23.5,0H706V142h22.5Zm23.5,0H729.5V142H752Zm23.5,0H753V142h22.5Zm23.5,0H776.5V142H799Zm23.5,0H800V142h22.5Zm23.5,0H823.5V142H846Zm23.5,0H847V142h22.5Zm23.5,0H870.5V142H893Zm23.5,0H894V142h22.5Zm23.5,0H917.5V142H940Zm0-23.5H917.5V118.5H940Zm0-23.5H917.5V95H940ZM940,94H917.5V71.5H940Zm0-23.5H917.5V48H940ZM940,47H917.5V24.5H940ZM917.5,23.5V1H940V23.5Z" />
</svg>
