<?xml version="1.0" encoding="utf-8"?>
<!-- Generator: Adobe Illustrator 22.1.0, SVG Export Plug-In . SVG Version: 6.00 Build 0)  -->
<svg version="1.1" id="Layer_1" xmlns="http://www.w3.org/2000/svg" xmlns:xlink="http://www.w3.org/1999/xlink" x="0px" y="0px"
	 viewBox="0 0 1500 1500" style="enable-background:new 0 0 1500 1500;" xml:space="preserve">
<style type="text/css">
	.st0{fill:none;stroke:#98B6E2;stroke-miterlimit:10;}
	.st1{fill:none;stroke:#939393;stroke-width:5;stroke-miterlimit:10;}
	.st2{fill:#596C82;}
	.st3{fill:#72B2F2;}
	.st4{fill:none;}
	.st5{font-family:'Bodoni-BoldItalic';}
	.st6{font-size:224px;}
</style>
<title>loading</title>
<g id="Grid">
	<line class="st0" x1="75" y1="0" x2="75" y2="1500"/>
	<line class="st0" x1="150" y1="0" x2="150" y2="1500"/>
	<line class="st0" x1="225" y1="0" x2="225" y2="1500"/>
	<line class="st0" x1="300" y1="0" x2="300" y2="1500"/>
	<line class="st0" x1="375" y1="0" x2="375" y2="1500"/>
	<line class="st0" x1="450" y1="0" x2="450" y2="1500"/>
	<line class="st0" x1="525" y1="0" x2="525" y2="1500"/>
	<line class="st0" x1="600" y1="0" x2="600" y2="1500"/>
	<line class="st0" x1="675" y1="0" x2="675" y2="1500"/>
	<line class="st0" x1="825" y1="0" x2="825" y2="1500"/>
	<line class="st0" x1="900" y1="0" x2="900" y2="1500"/>
	<line class="st0" x1="975" y1="0" x2="975" y2="1500"/>
	<line class="st0" x1="1050" y1="0" x2="1050" y2="1500"/>
	<line class="st0" x1="1125" y1="0" x2="1125" y2="1500"/>
	<line class="st0" x1="1200" y1="0" x2="1200" y2="1500"/>
	<line class="st0" x1="1275" y1="0" x2="1275" y2="1500"/>
	<line class="st0" x1="1350" y1="0" x2="1350" y2="1500"/>
	<line class="st0" x1="1425" y1="0" x2="1425" y2="1500"/>
	<line class="st0" x1="1500" y1="75" x2="0" y2="75"/>
	<line class="st0" x1="1500" y1="225" x2="0" y2="225"/>
	<line class="st0" x1="1500" y1="300" x2="0" y2="300"/>
	<line class="st0" x1="1500" y1="375" x2="0" y2="375"/>
	<line class="st0" x1="1500" y1="450" x2="0" y2="450"/>
	<line class="st0" x1="1500" y1="525" x2="0" y2="525"/>
	<line class="st0" x1="1500" y1="600" x2="0" y2="600"/>
	<line class="st0" x1="1500" y1="675" x2="0" y2="675"/>
	<line class="st1" x1="1500" y1="750" x2="0" y2="750"/>
	<line class="st0" x1="1500" y1="825" x2="0" y2="825"/>
	<line class="st0" x1="1500" y1="900" x2="0" y2="900"/>
	<line class="st0" x1="1500" y1="975" x2="0" y2="975"/>
	<line class="st0" x1="1500" y1="1050" x2="0" y2="1050"/>
	<line class="st0" x1="1500" y1="1125" x2="0" y2="1125"/>
	<line class="st0" x1="1500" y1="1200" x2="0" y2="1200"/>
	<line class="st0" x1="1500" y1="1275" x2="0" y2="1275"/>
	<line class="st0" x1="1500" y1="1350" x2="0" y2="1350"/>
	<line class="st0" x1="1500" y1="1425" x2="0" y2="1425"/>
	<line class="st0" x1="1500" y1="1500" x2="0" y2="1500"/>
	<line class="st0" x1="1500" y1="150" x2="0" y2="150"/>
	<line class="st1" x1="750" y1="0" x2="750" y2="1500"/>
</g>
<g class="rotate-sticker">
	<rect x="164.2" y="617" transform="translate(-27.77 28.87)" class="st2" width="1211.3" height="302.8"/>
	<rect x="124.5" y="580.1" transform="translate(-26.44 27.38)" class="st3" width="1211.3" height="302.8"/>
	<rect x="216.1" y="659.5" transform="translate(251.17 830.22)" class="st4" width="1029.2" height="177.3"/>
	<text transform="translate(251.17 830.22)" class="st5 st6">BE REEL</text>
</g>
</svg>
