<svg xmlns="http://www.w3.org/2000/svg" viewBox="0 0 328 93">
    <defs>
    <style>
    .cls-1 {
        fill: #596c82;
    }

    .cls-2 {
        fill: #72b2f2;
    }

    .cls-3 {
        fill: #1a1a1a;
    }

    .to-hide.hide {
        opacity: 0;
    }
    </style>
</defs>
<title>Be Reel Podcast logo</title>
<rect class="cls-1" x="10.07" y="10.46" width="317.93" height="82.54"/>
<g class="spring">
    <rect class="cls-2" width="317.93" height="82.54"/>
    <g>
        <path class="cls-3" d="M19.06,65.48l.39-2h4.69l8.27-41.11H27.46l.46-2H48.55c12.83,0,15.11,6,15.11,10,0,8.38-8.27,11-14.71,11.36v.14c5.86,1,12.5,3.31,12.5,10.88,0,6.63-4.37,10.48-10.1,12a30.37,30.37,0,0,1-7,.81Zm15.89-2h4.29c5.34,0,7.82-.61,8.92-3.58A54.7,54.7,0,0,0,50.38,48.1c0-3-1-5.14-6.58-5.14H38.85Zm4.42-22.51H45.1a6,6,0,0,0,5-2.17c1.43-2,2.73-9.26,2.73-11.76,0-3.52-.06-4.67-6.31-4.67H43.09Z"/>
        <path class="cls-3 to-hide" d="M66.07,65.48l.39-2h4.75l8.14-41.11H74.27l.39-2h33.6L106.5,33h-2.34c-.2-9.74-3.85-10.69-10.49-10.69H90.22L86.58,40.8h2C90,40.8,93.67,39.65,96,33h2.34L94.58,51.89h-2.4c0-4.53.19-9.06-4.69-9.06H86.06l-4,20.62h3.13C94.85,63.45,99,59.4,103,50.4h2.15l-3.19,15.08Z"/>
        <path class="cls-3 to-hide" d="M129.22,65.48l.39-2h4.75l8.14-41.11h-4.88l.46-2h20.57c6.38,0,15.43,1.29,15.43,10.08,0,9.06-10.29,10.61-16.8,11.15v.14c6.9,2,10.81,4.06,11.07,12.31.07,1.69.2,3.31.33,5,.13,2,.32,4,2.6,4a9.71,9.71,0,0,0,3.39-.68l-.2,2.23a15.53,15.53,0,0,1-6.9,2c-7.23,0-10.68-3.24-10.68-14.06,0-3-.19-10.14-4.36-10.14h-3.26L145,63.45h5.28l-.46,2Zm24-43.14-3.52,17.92h3.39c2.21,0,4.81-.27,6.57-1.76,2.35-2,3.32-9.26,3.32-12.3,0-3.86-2.86-3.86-5.73-3.86Z"/>
        <path class="cls-3 to-hide" d="M176.36,65.48l.39-2h4.75l8.14-41.11h-5.08l.39-2h33.6L216.79,33h-2.34c-.2-9.74-3.85-10.69-10.49-10.69h-3.45L196.87,40.8h1.95c1.5,0,5.14-1.15,7.49-7.77h2.34l-3.77,18.86h-2.41c0-4.53.19-9.06-4.69-9.06h-1.43l-4,20.62h3.13c9.64,0,13.74-4.05,17.77-13.05h2.15l-3.19,15.08Z"/>
        <path class="cls-3 to-hide" d="M219.78,65.48l.39-2h4.76l8.14-41.11H228l.39-2H262L260.22,33h-2.35c-.19-9.74-3.84-10.69-10.48-10.69h-3.45L240.29,40.8h2c1.49,0,5.14-1.15,7.48-7.77h2.35L248.3,51.89h-2.41c0-4.53.2-9.06-4.69-9.06h-1.43l-4,20.62h3.13c9.63,0,13.73-4.05,17.77-13.05h2.15l-3.19,15.08Z"/>
        <path class="cls-3 to-hide" d="M262.75,65.48l.46-2h4.69l8.33-41.11H271l.46-2h20.9l-.39,2h-5l-8.2,41.11h3.58c7.95,0,12.44-4.66,16.21-12.85H301l-3.51,14.88Z"/>
    </g>
</g>
</svg>
