<svg id="Layer_1" data-name="Layer 1" xmlns="http://www.w3.org/2000/svg" viewBox="0 0 1500 1500">
  <defs>
    <style>
      .cls-1, .cls-2 {
        fill: none;
        stroke-miterlimit: 10;
      }

      .cls-1 {
        stroke: #98b6e2;
      }

      .cls-2 {
        stroke: #939393;
        stroke-width: 5px;
      }
    </style>
  </defs>
  <title>loading-graph-paper</title>
  <line class="cls-1" x1="75" x2="75" y2="1499.99"/>
  <line class="cls-1" x1="150" x2="150" y2="1499.99"/>
  <line class="cls-1" x1="225" x2="225" y2="1499.99"/>
  <line class="cls-1" x1="300" x2="300" y2="1499.99"/>
  <line class="cls-1" x1="375" x2="375" y2="1499.99"/>
  <line class="cls-1" x1="450" x2="450" y2="1499.99"/>
  <line class="cls-1" x1="525" x2="525" y2="1499.99"/>
  <line class="cls-1" x1="600" x2="600" y2="1499.99"/>
  <line class="cls-1" x1="675" x2="675" y2="1499.99"/>
  <line class="cls-1" x1="825" x2="825" y2="1499.99"/>
  <line class="cls-1" x1="900" x2="900" y2="1499.99"/>
  <line class="cls-1" x1="975" x2="975" y2="1499.99"/>
  <line class="cls-1" x1="1050" x2="1050" y2="1499.99"/>
  <line class="cls-1" x1="1125" x2="1125" y2="1499.99"/>
  <line class="cls-1" x1="1200" x2="1200" y2="1499.99"/>
  <line class="cls-1" x1="1275" x2="1275" y2="1499.99"/>
  <line class="cls-1" x1="1350" x2="1350" y2="1499.99"/>
  <line class="cls-1" x1="1425" x2="1425" y2="1499.99"/>
  <line class="cls-1" x1="1500" y1="75" x2="0.01" y2="75"/>
  <line class="cls-1" x1="1500" y1="225" x2="0.01" y2="225"/>
  <line class="cls-1" x1="1500" y1="300" x2="0.01" y2="300"/>
  <line class="cls-1" x1="1500" y1="375" x2="0.01" y2="375"/>
  <line class="cls-1" x1="1500" y1="450" x2="0.01" y2="450"/>
  <line class="cls-1" x1="1500" y1="525" x2="0.01" y2="525"/>
  <line class="cls-1" x1="1499.99" y1="600" x2="0.01" y2="600"/>
  <line class="cls-1" x1="1499.99" y1="675" x2="0.01" y2="675"/>
  <line class="cls-1" x1="1499.99" y1="750" x2="0.01" y2="750"/>
  <line class="cls-1" x1="1499.99" y1="825" x2="0.01" y2="825"/>
  <line class="cls-1" x1="1499.99" y1="900" x2="0.01" y2="900"/>
  <line class="cls-1" x1="1499.99" y1="975" y2="975"/>
  <line class="cls-1" x1="1499.99" y1="1050" y2="1050"/>
  <line class="cls-1" x1="1499.99" y1="1125" y2="1125"/>
  <line class="cls-1" x1="1499.99" y1="1200" y2="1200"/>
  <line class="cls-1" x1="1499.99" y1="1275" y2="1275"/>
  <line class="cls-1" x1="1499.99" y1="1350" y2="1350"/>
  <line class="cls-1" x1="1499.99" y1="1425" y2="1425"/>
  <line class="cls-1" x1="1499.99" y1="1500" y2="1500"/>
  <line class="cls-1" x1="1500" y1="150" x2="0.01" y2="150"/>
  <line class="cls-2" x1="750" x2="750" y2="1499.99"/>
</svg>
